<svg width="48" height="48" xmlns="http://www.w3.org/2000/svg">

 <g>
  <title>background</title>
  <rect fill="none" id="canvas_background" height="50" width="50" y="-1" x="-1"/>
 </g>
 <g>
  <title>Layer 1</title>
  <g id="svg_6">
   <path id="svg_5" d="m15.499996,26.111087a4.444457,4.444457 0 0 1 -4.444457,-4.444457a4.444457,4.444457 0 0 1 4.444457,-4.444457a4.444457,4.444457 0 0 1 4.444457,4.444457a4.444457,4.444457 0 0 1 -4.444457,4.444457m0,-16.888935a12.444479,12.444479 0 0 0 -12.444479,12.444479c0,9.333359 12.444479,23.111174 12.444479,23.111174c0,0 12.444479,-13.777816 12.444479,-23.111174a12.444479,12.444479 0 0 0 -12.444479,-12.444479z"/>
  </g>
  <ellipse ry="7.12499" rx="6.374991" id="svg_7" cy="21.875001" cx="15.00001" stroke-opacity="null" stroke-width="null" stroke="null" fill="#000000"/>
  <path fill="#ffffff" id="svg_1" d="m15.249995,11.999988l-11,6l11,6l9,-4.91l0,6.91l2,0l0,-8m-18,4.18l0,4l7,3.82l7,-3.82l0,-4l-7,3.82l-7,-3.82z"/>
 </g>
</svg>